<?xml version="1.0" standalone="no"?>
<!DOCTYPE svg PUBLIC "-//W3C//DTD SVG 20010904//EN"
 "http://www.w3.org/TR/2001/REC-SVG-20010904/DTD/svg10.dtd">
<svg version="1.0" xmlns="http://www.w3.org/2000/svg"
 width="512.000000pt" height="512.000000pt" viewBox="0 0 512.000000 512.000000"
 preserveAspectRatio="xMidYMid meet">
<metadata>
Created by potrace 1.11, written by Peter Selinger 2001-2013
</metadata>
<g transform="translate(0.000000,512.000000) scale(0.100000,-0.100000)"
fill="#000000" stroke="none">
<path d="M3818 5068 c-64 -51 -578 -551 -967 -942 l-285 -285 -305 302 c-385
380 -382 378 -464 384 -85 7 -144 -18 -184 -78 -25 -38 -28 -51 -28 -124 0
-74 2 -84 28 -116 16 -19 165 -174 332 -345 l304 -312 -872 -5 c-608 -4 -889
-9 -927 -17 -145 -31 -315 -169 -384 -312 -27 -57 -39 -98 -46 -160 -6 -48
-10 -606 -10 -1341 l0 -1259 26 -64 c41 -103 74 -155 144 -224 67 -67 153
-120 237 -145 71 -22 4223 -22 4294 -1 150 46 283 159 354 301 l40 80 0 1365
0 1365 -39 79 c-73 151 -236 284 -387 316 -37 8 -321 13 -926 17 l-872 5 588
597 c324 328 607 617 629 643 62 73 65 168 7 243 -39 52 -92 75 -169 75 -60 0
-67 -2 -118 -42z m-1228 -1938 c536 -16 743 -62 894 -201 142 -130 202 -298
237 -669 16 -163 16 -817 0 -980 -33 -348 -91 -519 -221 -650 -105 -105 -237
-161 -463 -195 -297 -44 -1614 -44 -1907 0 -247 37 -377 90 -486 199 -96 96
-145 199 -184 391 -36 173 -44 315 -44 755 1 463 11 599 59 794 84 337 258
474 675 532 194 27 926 39 1440 24z m1979 -611 c171 -86 213 -306 85 -449 -62
-68 -111 -92 -200 -98 -62 -4 -79 -1 -133 23 -110 50 -174 147 -175 265 -1
219 226 357 423 259z m-9 -782 c144 -68 209 -241 142 -382 -49 -103 -140 -165
-253 -173 -56 -4 -75 -1 -121 20 -75 34 -122 79 -155 146 -49 101 -32 232 42
320 79 94 228 124 345 69z"/>
</g>
</svg>
